HIERARCHY
ROOT Joint1
{
	OFFSET 0.000000 0.000000 0.000000
	CHANNELS 6 Xposition Yposition Zposition Xrotation Yrotation Zrotation
	JOINT Joint2
	{
		OFFSET -0.000000 0.000000 1.456275
		CHANNELS 6 Xposition Yposition Zposition Xrotation Yrotation Zrotation
		JOINT Joint3
		{
			OFFSET -0.000000 0.000002 1.471446
			CHANNELS 6 Xposition Yposition Zposition Xrotation Yrotation Zrotation
			JOINT Joint4
			{
				OFFSET 0.625745 0.000000 0.917755
				CHANNELS 6 Xposition Yposition Zposition Xrotation Yrotation Zrotation
				JOINT Joint5
				{
					OFFSET -0.629534 0.000001 0.940221
					CHANNELS 6 Xposition Yposition Zposition Xrotation Yrotation Zrotation
					JOINT Joint6
					{
						OFFSET -0.000001 0.113772 1.960660
						CHANNELS 6 Xposition Yposition Zposition Xrotation Yrotation Zrotation
						JOINT Joint7
						{
							OFFSET -0.669733 -0.113771 0.388340
							CHANNELS 6 Xposition Yposition Zposition Xrotation Yrotation Zrotation
							End Site
							{
								OFFSET 0.005509 0.005509 0.438980
							}
						}
					}
				}
			}
		}
	}
}
MOTION
Frames: 24
Frame Time: 0.041667
0.000000 0.000000 0.000000 -0.000000 1.019410 -58.493918 -0.000000 0.000000 1.456275 -0.000004 -61.617752 -0.000004 -0.000001 0.000002 1.471446 -0.000006 -1.133453 65.593694 0.625745 0.000001 0.917755 -0.000005 77.019358 0.000002 -0.629534 0.000001 0.940221 0.000000 1.709736 -27.983157 -0.000001 0.113772 1.960660 -88.303875 128.525637 0.000005 -0.669733 -0.113770 0.388340 -0.503979 3.546027 123.561428 
0.000000 0.000000 0.000000 -0.000000 1.019410 -56.329000 -0.000000 -0.000000 1.456275 0.000000 -61.002127 -0.000002 -0.000000 0.000002 1.471446 -0.000003 -1.133454 63.164845 0.625745 0.000001 0.917755 -0.000012 79.166257 -0.000002 -0.629534 0.000001 0.940221 -0.000001 1.709736 -26.947943 -0.000001 0.113772 1.960660 -88.303882 127.098783 0.000004 -0.669733 -0.113771 0.388340 -0.511337 3.547482 123.983779 
0.000000 0.000000 0.000000 -0.000000 1.019410 -54.170906 -0.000000 0.000000 1.456275 -0.000006 -60.388455 -0.000002 -0.000000 0.000002 1.471446 0.000001 -1.133456 60.743673 0.625745 0.000000 0.917755 -0.000024 81.306381 0.000004 -0.629534 0.000001 0.940221 -0.000002 1.709734 -25.915990 -0.000001 0.113772 1.960660 -88.303875 125.676437 0.000003 -0.669733 -0.113771 0.388340 -0.518685 3.548882 124.404765 
0.000000 0.000000 0.000000 -0.000000 1.019410 -52.305544 -0.000000 -0.000000 1.456275 0.000003 -59.858009 -0.000002 -0.000000 0.000002 1.471446 -0.000002 -1.133456 58.650882 0.625745 0.000001 0.917755 -0.000009 83.156228 -0.000003 -0.629533 0.000001 0.940221 -0.000001 1.709735 -25.024013 -0.000001 0.113772 1.960661 -88.303875 124.447003 -0.000002 -0.669733 -0.113771 0.388340 -0.525045 3.550045 124.768705 
0.000000 0.000000 0.000000 -0.000000 1.019410 -50.901787 -0.000000 0.000000 1.456275 -0.000002 -59.458846 -0.000004 -0.000000 0.000002 1.471446 0.000000 -1.133457 57.076005 0.625745 0.000000 0.917755 -0.000020 84.548296 0.000001 -0.629533 0.000001 0.940220 -0.000003 1.709739 -24.352770 -0.000001 0.113773 1.960661 -88.303875 123.521826 0.000003 -0.669734 -0.113771 0.388340 -0.529832 3.550895 125.042554 
0.000000 0.000000 0.000000 -0.000000 1.019410 -49.687925 -0.000000 -0.000000 1.456275 -0.000003 -59.113675 0.000002 -0.000000 0.000002 1.471446 0.000002 -1.133456 55.714167 0.625745 0.000000 0.917755 -0.000026 85.752055 0.000013 -0.629534 0.000001 0.940221 0.000002 1.709740 -23.772332 -0.000001 0.113772 1.960660 -88.303875 122.721806 -0.000002 -0.669733 -0.113771 0.388340 -0.533979 3.551611 125.279371 
0.000000 0.000000 0.000000 -0.000000 1.019410 -48.282081 -0.000000 0.000000 1.456275 0.000002 -58.713911 0.000005 -0.000000 0.000002 1.471446 -0.000001 -1.133455 54.136940 0.625745 0.000000 0.917755 -0.000064 87.146206 0.000020 -0.629533 0.000001 0.940220 -0.000003 1.709739 -23.100091 -0.000001 0.113772 1.960661 -88.303875 121.795237 0.000002 -0.669733 -0.113771 0.388340 -0.538778 3.552427 125.553630 
0.000000 0.000000 0.000000 -0.000000 1.019410 -46.413833 -0.000000 0.000000 1.456275 0.000001 -58.182666 0.000000 -0.000000 0.000002 1.471446 0.000001 -1.133457 52.040929 0.625745 0.000000 0.917755 -0.000108 88.998902 0.000056 -0.629534 0.000001 0.940221 -0.000004 1.709738 -22.206731 -0.000001 0.113772 1.960660 -88.303875 120.563904 0.000004 -0.669733 -0.113771 0.388341 -0.545168 3.553465 125.918089 
0.000000 0.000000 0.000000 -0.000000 1.019410 -44.258622 -0.000000 0.000000 1.456275 0.000005 -57.569800 0.000001 -0.000000 0.000002 1.471446 -0.000001 -1.133459 49.622987 0.625745 0.000000 0.917755 0.000139 91.136177 -0.000049 -0.629534 0.000001 0.940221 0.000001 1.709734 -21.176158 -0.000001 0.113772 1.960661 -88.303875 119.143457 0.000001 -0.669733 -0.113771 0.388341 -0.552549 3.554614 126.338542 
0.000000 0.000000 0.000000 -0.000000 1.019410 -42.103390 -0.000000 0.000000 1.456275 0.000003 -56.956941 -0.000001 -0.000000 0.000002 1.471446 -0.000001 -1.133456 47.205015 0.625745 0.000001 0.917755 0.000056 93.273466 -0.000010 -0.629533 0.000001 0.940221 0.000001 1.709733 -20.145573 -0.000001 0.113772 1.960660 -88.303875 117.722982 0.000003 -0.669733 -0.113771 0.388340 -0.559935 3.555711 126.758995 
0.000000 0.000000 0.000000 -0.000000 1.019410 -40.235155 -0.000000 0.000000 1.456275 0.000003 -56.425689 -0.000000 -0.000000 0.000002 1.471446 -0.000003 -1.133455 45.109032 0.625744 0.000001 0.917755 0.000026 95.126148 -0.000035 -0.629534 0.000001 0.940221 -0.000000 1.709734 -19.252230 -0.000000 0.113772 1.960661 -88.303868 116.491677 -0.000003 -0.669733 -0.113772 0.388341 -0.566344 3.556615 127.123481 
0.000000 0.000000 0.000000 -0.000000 1.019410 -38.829455 -0.000000 0.000000 1.456275 0.000001 -56.025965 0.000004 -0.000000 0.000002 1.471446 -0.000004 -1.133455 43.531961 0.625745 0.000001 0.917755 0.000005 96.520156 -0.000005 -0.629533 0.000001 0.940221 0.000002 1.709736 -18.580049 -0.000001 0.113772 1.960661 -88.303875 115.565202 0.000007 -0.669734 -0.113771 0.388340 -0.571171 3.557269 127.397727 
0.000000 0.000000 0.000000 -0.000000 1.019410 -37.615679 -0.000000 -0.000000 1.456275 0.000001 -55.680812 0.000000 -0.000000 0.000002 1.471446 -0.000002 -1.133457 42.170213 0.625745 0.000001 0.917755 0.000036 97.723833 -0.000017 -0.629534 0.000001 0.940221 0.000001 1.709736 -17.999652 -0.000001 0.113772 1.960661 -88.303875 114.765237 0.000001 -0.669733 -0.113771 0.388340 -0.575340 3.557817 127.634516 
0.000000 0.000000 0.000000 -0.000000 1.019410 -36.211699 -0.000000 0.000000 1.456275 -0.000003 -55.281577 -0.000001 -0.000000 0.000002 1.471446 -0.000003 -1.133455 40.595079 0.625745 0.000000 0.917755 0.000007 99.116119 -0.000003 -0.629534 0.000001 0.940221 -0.000000 1.709735 -17.328301 -0.000000 0.113773 1.960660 -88.303882 113.839904 0.000002 -0.669734 -0.113770 0.388340 -0.580167 3.558429 127.908406 
0.000000 0.000000 0.000000 -0.000000 1.019410 -34.345838 -0.000000 0.000000 1.456275 0.000000 -54.750998 -0.000004 -0.000000 0.000002 1.471446 -0.000003 -1.133456 38.501756 0.625744 0.000000 0.917755 0.000003 100.966452 -0.000005 -0.629534 0.000001 0.940221 0.000000 1.709735 -16.436092 -0.000001 0.113772 1.960660 -88.303868 112.610155 0.000009 -0.669733 -0.113771 0.388340 -0.586589 3.559206 128.272428 
0.000000 0.000000 0.000000 -0.000000 1.019410 -32.188236 -0.000000 0.000000 1.456275 0.000005 -54.137466 0.000003 -0.000000 0.000002 1.471446 0.000000 -1.133456 36.081130 0.625744 0.000000 0.917755 0.000014 103.106097 -0.000004 -0.629534 0.000001 0.940221 -0.000001 1.709738 -15.404375 -0.000001 0.113772 1.960661 -88.303875 111.188124 0.000003 -0.669733 -0.113771 0.388340 -0.594014 3.560054 128.693345 
0.000000 0.000000 0.000000 -0.000000 1.019410 -30.025054 -0.000000 -0.000000 1.456275 -0.000001 -53.522339 0.000002 -0.000000 0.000002 1.471446 0.000000 -1.133457 33.654234 0.625744 0.000001 0.917755 0.000017 105.251275 -0.000002 -0.629534 0.000001 0.940221 0.000001 1.709736 -14.369996 -0.000001 0.113772 1.960661 -88.303875 109.762417 0.000015 -0.669733 -0.113771 0.388340 -0.601465 3.560846 129.115369 
0.000000 0.000000 0.000000 -0.000000 1.019410 -28.164779 -0.000000 0.000000 1.456275 -0.000002 -52.993355 0.000001 -0.000000 0.000002 1.471446 -0.000001 -1.133457 31.567174 0.625744 0.000001 0.917755 0.000006 107.096068 -0.000000 -0.629534 0.000001 0.940221 -0.000000 1.709737 -13.480451 -0.000000 0.113773 1.960660 -88.303868 108.536357 -0.000000 -0.669733 -0.113771 0.388340 -0.607885 3.561485 129.478284 
0.000000 0.000000 0.000000 -0.000000 1.019410 -26.795531 -0.000000 -0.000000 1.456275 0.000000 -52.604000 0.000001 -0.000000 0.000002 1.471446 -0.000000 -1.133458 30.031003 0.625744 0.000000 0.917755 0.000005 108.453917 -0.000000 -0.629534 0.000001 0.940221 -0.000000 1.709737 -12.825704 -0.000001 0.113772 1.960660 -88.303862 107.633912 -0.000001 -0.669734 -0.113771 0.388340 -0.612606 3.561931 129.745399 
0.000000 0.000000 0.000000 -0.000000 1.019410 -25.601603 -0.000000 -0.000000 1.456275 -0.000001 -52.264498 -0.000002 -0.000000 0.000002 1.471446 -0.000002 -1.133457 28.691528 0.625745 0.000000 0.917755 0.000009 109.637917 -0.000007 -0.629534 0.000001 0.940221 -0.000002 1.709738 -12.254800 -0.000001 0.113773 1.960661 -88.303875 106.847019 -0.000000 -0.669733 -0.113771 0.388340 -0.616726 3.562304 129.978322 
0.000000 0.000000 0.000000 -0.000000 1.019410 -24.141319 -0.000000 -0.000000 1.456275 -0.000002 -51.849250 0.000000 -0.000000 0.000002 1.471446 -0.000000 -1.133458 27.053222 0.625745 0.000000 0.917755 0.000005 111.086040 -0.000004 -0.629533 0.000001 0.940221 -0.000000 1.709738 -11.556523 -0.000002 0.113772 1.960661 -88.303862 105.884577 -0.000001 -0.669734 -0.113771 0.388340 -0.621771 3.562731 130.263223 
0.000000 0.000000 0.000000 -0.000000 1.019410 -22.155867 -0.000000 -0.000000 1.456275 -0.000001 -51.284670 0.000001 -0.000000 0.000002 1.471446 -0.000002 -1.133457 24.825730 0.625745 0.000000 0.917755 0.000007 113.054971 -0.000001 -0.629534 0.000001 0.940221 -0.000001 1.709738 -10.607126 -0.000001 0.113772 1.960660 -88.303868 104.576016 -0.000001 -0.669733 -0.113771 0.388340 -0.628625 3.563272 130.650563 
0.000000 0.000000 0.000000 -0.000000 1.019410 -20.117861 -0.000000 0.000000 1.456275 0.000003 -50.705139 -0.000000 -0.000000 0.000002 1.471446 0.000001 -1.133457 22.539269 0.625745 0.000000 0.917755 0.000006 115.076011 -0.000002 -0.629533 0.000001 0.940221 0.000000 1.709736 -9.632595 -0.000001 0.113772 1.960660 -88.303868 103.232811 -0.000002 -0.669734 -0.113771 0.388341 -0.635669 3.563783 131.048162 
0.000000 0.000000 0.000000 -0.000000 1.019410 -18.529108 -0.000000 0.000000 1.456275 0.000001 -50.253366 -0.000000 -0.000000 0.000002 1.471446 -0.000001 -1.133457 20.756834 0.625745 0.000000 0.917755 0.000004 116.651530 -0.000001 -0.629533 0.000001 0.940221 0.000001 1.709737 -8.872889 -0.000000 0.113772 1.960660 -88.303868 102.185688 0.000018 -0.669734 -0.113771 0.388341 -0.641164 3.564146 131.358116 
